<?xml version="1.0" encoding="iso-8859-1"?>
<!-- Uploaded to: SVG Repo, www.svgrepo.com, Generator: SVG Repo Mixer Tools -->
<svg fill="#FFFFFF" height="800px" width="800px" version="1.1" id="Layer_1" xmlns="http://www.w3.org/2000/svg" xmlns:xlink="http://www.w3.org/1999/xlink" 
	 viewBox="0 0 512 512" xml:space="preserve">
<g>
	<g>
		<path d="M480.342,373.235L429.648,224.27L327.782,326.14l75.675,109.313c5.93,8.582,18.209,9.677,25.578,2.308l47.3-47.312
			C480.843,385.942,482.399,379.268,480.342,373.235z"/>
	</g>
</g>
<g>
	<g>
		<path d="M138.765,31.658c-6.021-2.036-12.696-0.501-17.214,4.007L74.239,82.965c-7.413,7.412-6.232,19.68,2.308,25.578
			l109.313,75.676L287.731,82.353L138.765,31.658z"/>
	</g>
</g>
<g>
	<g>
		<path d="M492.385,19.615c-26.146-26.146-68.451-26.16-94.612,0L173.826,243.562l-50.36-10.072
			c-5.456-1.078-11.15,0.621-15.103,4.574l-47.3,47.312c-8.064,8.064-5.854,21.676,4.344,26.786l89.625,44.807l44.807,89.625
			c5.128,10.232,18.773,12.385,26.786,4.344l47.312-47.3c3.953-3.953,5.673-9.626,4.574-15.103l-10.072-50.36l223.947-223.947
			C518.532,88.079,518.545,45.775,492.385,19.615z"/>
	</g>
</g>
<g>
	<g>
		<path d="M95.45,366.375c-6.533-6.533-17.117-6.533-23.65,0l-66.9,66.9c-6.533,6.533-6.533,17.117,0,23.65
			c6.534,6.533,17.117,6.534,23.65,0l66.9-66.9C101.982,383.492,101.982,372.908,95.45,366.375z"/>
	</g>
</g>
<g>
	<g>
		<path d="M145.624,416.55c-6.533-6.533-17.117-6.533-23.65,0l-66.9,66.9c-6.533,6.533-6.533,17.117,0,23.65
			c6.534,6.533,17.117,6.534,23.65,0l66.9-66.9C152.157,433.667,152.157,423.082,145.624,416.55z"/>
	</g>
</g>
</svg>